<svg xmlns="http://www.w3.org/2000/svg" xml:space="preserve" viewBox="0 0 350.8 74.3"><path class="svg__ico" style="fill:#ccb297" d="M12.4 0v34.8L47.2 0h4.7L27.5 24.3l29.6 50H42.7l-24.2-41-6.1 6.1v34.8H0V0h12.4zM140 37.1c0 10.3-3.6 19-10.9 26.3-7.3 7.2-16 10.9-26.2 10.9-10.3 0-19-3.6-26.3-10.9-7.2-7.2-10.9-16-10.9-26.3 0-10.2 3.6-19 10.9-26.2C83.9 3.6 92.7 0 102.9 0s19 3.6 26.2 10.9c7.3 7.3 10.9 16 10.9 26.2zm-61.8 0c0 9.4 2.4 17.4 7.2 24 4.8 6.6 10.7 9.9 17.5 9.9 6.8 0 12.7-3.3 17.5-9.9 4.9-6.6 7.3-14.6 7.3-24 0-9.3-2.4-17.3-7.3-23.9-4.9-6.6-10.7-9.9-17.5-9.9-6.8 0-12.7 3.3-17.5 9.9-4.8 6.6-7.2 14.6-7.2 23.9zM150.1 0h70.2v3.3h-28.9v71H179v-71h-28.9V0zM226.8 0h15.1l21.5 30.6L289.1 0h4.3l-28.1 33.4v40.8H253V37.4L226.8 0zM313.7 0v70.9h37.1v3.3h-49.5V0h12.4z"/></svg>